<mxfile host="app.diagrams.net" agent="Mozilla/5.0 (Windows NT 10.0; Win64; x64; rv:133.0) Gecko/20100101 Firefox/133.0" version="25.0.3">
  <diagram name="Page-1" id="IfmQNObIT9ZOwhNdTQNY">
    <mxGraphModel dx="2776" dy="1329" grid="1" gridSize="10" guides="1" tooltips="1" connect="1" arrows="1" fold="1" page="1" pageScale="1" pageWidth="850" pageHeight="1100" math="0" shadow="0">
      <root>
        <mxCell id="0" />
        <mxCell id="1" parent="0" />
        <mxCell id="xQUeO6mjrXS3cHGue7Jo-150" style="edgeStyle=orthogonalEdgeStyle;rounded=0;orthogonalLoop=1;jettySize=auto;html=1;exitX=0.75;exitY=0;exitDx=0;exitDy=0;entryX=0.5;entryY=1;entryDx=0;entryDy=0;labelBackgroundColor=none;fontColor=default;" edge="1" parent="1" source="xQUeO6mjrXS3cHGue7Jo-1" target="xQUeO6mjrXS3cHGue7Jo-4">
          <mxGeometry relative="1" as="geometry" />
        </mxCell>
        <mxCell id="xQUeO6mjrXS3cHGue7Jo-1" value="USER" style="rounded=0;whiteSpace=wrap;html=1;labelBackgroundColor=none;" vertex="1" parent="1">
          <mxGeometry x="157.5" y="575" width="80" height="40" as="geometry" />
        </mxCell>
        <mxCell id="xQUeO6mjrXS3cHGue7Jo-2" value="Role" style="ellipse;whiteSpace=wrap;html=1;labelBackgroundColor=none;" vertex="1" parent="1">
          <mxGeometry x="315" y="515" width="105" height="60" as="geometry" />
        </mxCell>
        <mxCell id="xQUeO6mjrXS3cHGue7Jo-3" value="Name" style="ellipse;whiteSpace=wrap;html=1;labelBackgroundColor=none;" vertex="1" parent="1">
          <mxGeometry x="-15" y="475" width="105" height="60" as="geometry" />
        </mxCell>
        <mxCell id="xQUeO6mjrXS3cHGue7Jo-4" value="UserId" style="ellipse;whiteSpace=wrap;html=1;labelBackgroundColor=none;" vertex="1" parent="1">
          <mxGeometry x="245" y="440" width="105" height="60" as="geometry" />
        </mxCell>
        <mxCell id="xQUeO6mjrXS3cHGue7Jo-5" value="Password" style="ellipse;whiteSpace=wrap;html=1;labelBackgroundColor=none;" vertex="1" parent="1">
          <mxGeometry x="40" y="705" width="105" height="60" as="geometry" />
        </mxCell>
        <mxCell id="xQUeO6mjrXS3cHGue7Jo-6" value="Email" style="ellipse;whiteSpace=wrap;html=1;labelBackgroundColor=none;" vertex="1" parent="1">
          <mxGeometry x="-27.5" y="635" width="105" height="60" as="geometry" />
        </mxCell>
        <mxCell id="xQUeO6mjrXS3cHGue7Jo-15" value="" style="endArrow=classic;html=1;rounded=0;exitX=0;exitY=1;exitDx=0;exitDy=0;labelBackgroundColor=none;fontColor=default;" edge="1" parent="1" source="xQUeO6mjrXS3cHGue7Jo-1" target="xQUeO6mjrXS3cHGue7Jo-5">
          <mxGeometry width="50" height="50" relative="1" as="geometry">
            <mxPoint x="95" y="675" as="sourcePoint" />
            <mxPoint x="145" y="625" as="targetPoint" />
          </mxGeometry>
        </mxCell>
        <mxCell id="xQUeO6mjrXS3cHGue7Jo-16" value="" style="endArrow=classic;html=1;rounded=0;exitX=0;exitY=0;exitDx=0;exitDy=0;entryX=1;entryY=1;entryDx=0;entryDy=0;labelBackgroundColor=none;fontColor=default;" edge="1" parent="1" source="xQUeO6mjrXS3cHGue7Jo-1" target="xQUeO6mjrXS3cHGue7Jo-3">
          <mxGeometry width="50" height="50" relative="1" as="geometry">
            <mxPoint x="168" y="625" as="sourcePoint" />
            <mxPoint x="82" y="682" as="targetPoint" />
          </mxGeometry>
        </mxCell>
        <mxCell id="xQUeO6mjrXS3cHGue7Jo-17" style="edgeStyle=orthogonalEdgeStyle;rounded=0;orthogonalLoop=1;jettySize=auto;html=1;labelBackgroundColor=none;fontColor=default;" edge="1" parent="1" source="xQUeO6mjrXS3cHGue7Jo-20" target="xQUeO6mjrXS3cHGue7Jo-21">
          <mxGeometry relative="1" as="geometry" />
        </mxCell>
        <mxCell id="xQUeO6mjrXS3cHGue7Jo-19" style="edgeStyle=orthogonalEdgeStyle;rounded=0;orthogonalLoop=1;jettySize=auto;html=1;exitX=0.5;exitY=0;exitDx=0;exitDy=0;entryX=0.5;entryY=1;entryDx=0;entryDy=0;labelBackgroundColor=none;fontColor=default;" edge="1" parent="1" source="xQUeO6mjrXS3cHGue7Jo-20" target="xQUeO6mjrXS3cHGue7Jo-23">
          <mxGeometry relative="1" as="geometry" />
        </mxCell>
        <mxCell id="xQUeO6mjrXS3cHGue7Jo-107" style="edgeStyle=orthogonalEdgeStyle;rounded=0;orthogonalLoop=1;jettySize=auto;html=1;entryX=0;entryY=0.5;entryDx=0;entryDy=0;labelBackgroundColor=none;fontColor=default;" edge="1" parent="1" source="xQUeO6mjrXS3cHGue7Jo-20" target="xQUeO6mjrXS3cHGue7Jo-25">
          <mxGeometry relative="1" as="geometry" />
        </mxCell>
        <mxCell id="xQUeO6mjrXS3cHGue7Jo-20" value="Device" style="rounded=0;whiteSpace=wrap;html=1;labelBackgroundColor=none;" vertex="1" parent="1">
          <mxGeometry x="730" y="570" width="80" height="40" as="geometry" />
        </mxCell>
        <mxCell id="xQUeO6mjrXS3cHGue7Jo-21" value="Location" style="ellipse;whiteSpace=wrap;html=1;labelBackgroundColor=none;" vertex="1" parent="1">
          <mxGeometry x="717.5" y="660" width="105" height="60" as="geometry" />
        </mxCell>
        <mxCell id="xQUeO6mjrXS3cHGue7Jo-22" value="DeviceName" style="ellipse;whiteSpace=wrap;html=1;labelBackgroundColor=none;" vertex="1" parent="1">
          <mxGeometry x="557.5" y="470" width="105" height="60" as="geometry" />
        </mxCell>
        <mxCell id="xQUeO6mjrXS3cHGue7Jo-23" value="DeviceID" style="ellipse;whiteSpace=wrap;html=1;labelBackgroundColor=none;" vertex="1" parent="1">
          <mxGeometry x="717.5" y="470" width="105" height="60" as="geometry" />
        </mxCell>
        <mxCell id="xQUeO6mjrXS3cHGue7Jo-24" value="State" style="ellipse;whiteSpace=wrap;html=1;labelBackgroundColor=none;" vertex="1" parent="1">
          <mxGeometry x="557.5" y="660" width="105" height="60" as="geometry" />
        </mxCell>
        <mxCell id="xQUeO6mjrXS3cHGue7Jo-25" value="DeviceType" style="ellipse;whiteSpace=wrap;html=1;labelBackgroundColor=none;" vertex="1" parent="1">
          <mxGeometry x="865" y="560" width="105" height="60" as="geometry" />
        </mxCell>
        <mxCell id="xQUeO6mjrXS3cHGue7Jo-26" value="" style="endArrow=classic;html=1;rounded=0;exitX=0;exitY=1;exitDx=0;exitDy=0;labelBackgroundColor=none;fontColor=default;" edge="1" parent="1" source="xQUeO6mjrXS3cHGue7Jo-20" target="xQUeO6mjrXS3cHGue7Jo-24">
          <mxGeometry width="50" height="50" relative="1" as="geometry">
            <mxPoint x="667.5" y="670" as="sourcePoint" />
            <mxPoint x="717.5" y="620" as="targetPoint" />
          </mxGeometry>
        </mxCell>
        <mxCell id="xQUeO6mjrXS3cHGue7Jo-27" value="" style="endArrow=classic;html=1;rounded=0;exitX=0;exitY=0;exitDx=0;exitDy=0;entryX=1;entryY=1;entryDx=0;entryDy=0;labelBackgroundColor=none;fontColor=default;" edge="1" parent="1" source="xQUeO6mjrXS3cHGue7Jo-20" target="xQUeO6mjrXS3cHGue7Jo-22">
          <mxGeometry width="50" height="50" relative="1" as="geometry">
            <mxPoint x="740.5" y="620" as="sourcePoint" />
            <mxPoint x="654.5" y="677" as="targetPoint" />
          </mxGeometry>
        </mxCell>
        <mxCell id="xQUeO6mjrXS3cHGue7Jo-41" style="edgeStyle=orthogonalEdgeStyle;rounded=0;orthogonalLoop=1;jettySize=auto;html=1;exitX=0;exitY=0.5;exitDx=0;exitDy=0;entryX=1;entryY=0.5;entryDx=0;entryDy=0;labelBackgroundColor=none;fontColor=default;" edge="1" parent="1" source="xQUeO6mjrXS3cHGue7Jo-43" target="xQUeO6mjrXS3cHGue7Jo-48">
          <mxGeometry relative="1" as="geometry" />
        </mxCell>
        <mxCell id="xQUeO6mjrXS3cHGue7Jo-115" style="edgeStyle=orthogonalEdgeStyle;rounded=0;orthogonalLoop=1;jettySize=auto;html=1;exitX=0.5;exitY=1;exitDx=0;exitDy=0;entryX=0.5;entryY=0;entryDx=0;entryDy=0;labelBackgroundColor=none;fontColor=default;" edge="1" parent="1" source="xQUeO6mjrXS3cHGue7Jo-43" target="xQUeO6mjrXS3cHGue7Jo-46">
          <mxGeometry relative="1" as="geometry" />
        </mxCell>
        <mxCell id="xQUeO6mjrXS3cHGue7Jo-43" value="Room" style="rounded=0;whiteSpace=wrap;html=1;labelBackgroundColor=none;" vertex="1" parent="1">
          <mxGeometry x="157.5" y="895" width="80" height="40" as="geometry" />
        </mxCell>
        <mxCell id="xQUeO6mjrXS3cHGue7Jo-45" value="RoomName" style="ellipse;whiteSpace=wrap;html=1;labelBackgroundColor=none;" vertex="1" parent="1">
          <mxGeometry x="-27.5" y="795" width="105" height="60" as="geometry" />
        </mxCell>
        <mxCell id="xQUeO6mjrXS3cHGue7Jo-46" value="RoomID" style="ellipse;whiteSpace=wrap;html=1;labelBackgroundColor=none;" vertex="1" parent="1">
          <mxGeometry x="145" y="1005" width="105" height="60" as="geometry" />
        </mxCell>
        <mxCell id="xQUeO6mjrXS3cHGue7Jo-48" value="RoomType" style="ellipse;whiteSpace=wrap;html=1;labelBackgroundColor=none;" vertex="1" parent="1">
          <mxGeometry x="-57.5" y="885" width="105" height="60" as="geometry" />
        </mxCell>
        <mxCell id="xQUeO6mjrXS3cHGue7Jo-50" value="" style="endArrow=classic;html=1;rounded=0;exitX=0;exitY=0;exitDx=0;exitDy=0;entryX=1;entryY=1;entryDx=0;entryDy=0;labelBackgroundColor=none;fontColor=default;" edge="1" parent="1" source="xQUeO6mjrXS3cHGue7Jo-43" target="xQUeO6mjrXS3cHGue7Jo-45">
          <mxGeometry width="50" height="50" relative="1" as="geometry">
            <mxPoint x="155.5" y="945" as="sourcePoint" />
            <mxPoint x="69.5" y="1002" as="targetPoint" />
          </mxGeometry>
        </mxCell>
        <mxCell id="xQUeO6mjrXS3cHGue7Jo-52" style="edgeStyle=orthogonalEdgeStyle;rounded=0;orthogonalLoop=1;jettySize=auto;html=1;exitX=0;exitY=0.5;exitDx=0;exitDy=0;entryX=1;entryY=0.5;entryDx=0;entryDy=0;labelBackgroundColor=none;fontColor=default;" edge="1" parent="1" source="xQUeO6mjrXS3cHGue7Jo-54" target="xQUeO6mjrXS3cHGue7Jo-59">
          <mxGeometry relative="1" as="geometry" />
        </mxCell>
        <mxCell id="xQUeO6mjrXS3cHGue7Jo-54" value="Automation Rule" style="rounded=0;whiteSpace=wrap;html=1;labelBackgroundColor=none;" vertex="1" parent="1">
          <mxGeometry x="-344.5" y="570" width="80" height="40" as="geometry" />
        </mxCell>
        <mxCell id="xQUeO6mjrXS3cHGue7Jo-55" value="Status" style="ellipse;whiteSpace=wrap;html=1;labelBackgroundColor=none;" vertex="1" parent="1">
          <mxGeometry x="-425" y="725" width="105" height="60" as="geometry" />
        </mxCell>
        <mxCell id="xQUeO6mjrXS3cHGue7Jo-56" value="RuleName" style="ellipse;whiteSpace=wrap;html=1;labelBackgroundColor=none;" vertex="1" parent="1">
          <mxGeometry x="-517" y="470" width="105" height="60" as="geometry" />
        </mxCell>
        <mxCell id="xQUeO6mjrXS3cHGue7Jo-57" value="RuleID" style="ellipse;whiteSpace=wrap;html=1;labelBackgroundColor=none;" vertex="1" parent="1">
          <mxGeometry x="-292.5" y="725" width="105" height="60" as="geometry" />
        </mxCell>
        <mxCell id="xQUeO6mjrXS3cHGue7Jo-58" value="Action" style="ellipse;whiteSpace=wrap;html=1;labelBackgroundColor=none;" vertex="1" parent="1">
          <mxGeometry x="-517" y="660" width="105" height="60" as="geometry" />
        </mxCell>
        <mxCell id="xQUeO6mjrXS3cHGue7Jo-59" value="TriggerCondition" style="ellipse;whiteSpace=wrap;html=1;labelBackgroundColor=none;" vertex="1" parent="1">
          <mxGeometry x="-547" y="560" width="105" height="60" as="geometry" />
        </mxCell>
        <mxCell id="xQUeO6mjrXS3cHGue7Jo-60" value="" style="endArrow=classic;html=1;rounded=0;exitX=0;exitY=1;exitDx=0;exitDy=0;labelBackgroundColor=none;fontColor=default;" edge="1" parent="1" source="xQUeO6mjrXS3cHGue7Jo-54" target="xQUeO6mjrXS3cHGue7Jo-58">
          <mxGeometry width="50" height="50" relative="1" as="geometry">
            <mxPoint x="-407" y="670" as="sourcePoint" />
            <mxPoint x="-357" y="620" as="targetPoint" />
          </mxGeometry>
        </mxCell>
        <mxCell id="xQUeO6mjrXS3cHGue7Jo-61" value="" style="endArrow=classic;html=1;rounded=0;exitX=0;exitY=0;exitDx=0;exitDy=0;entryX=1;entryY=1;entryDx=0;entryDy=0;labelBackgroundColor=none;fontColor=default;" edge="1" parent="1" source="xQUeO6mjrXS3cHGue7Jo-54" target="xQUeO6mjrXS3cHGue7Jo-56">
          <mxGeometry width="50" height="50" relative="1" as="geometry">
            <mxPoint x="-334" y="620" as="sourcePoint" />
            <mxPoint x="-420" y="677" as="targetPoint" />
          </mxGeometry>
        </mxCell>
        <mxCell id="xQUeO6mjrXS3cHGue7Jo-63" style="edgeStyle=orthogonalEdgeStyle;rounded=0;orthogonalLoop=1;jettySize=auto;html=1;exitX=0;exitY=0.5;exitDx=0;exitDy=0;entryX=1;entryY=0.5;entryDx=0;entryDy=0;labelBackgroundColor=none;fontColor=default;" edge="1" parent="1" source="xQUeO6mjrXS3cHGue7Jo-65" target="xQUeO6mjrXS3cHGue7Jo-70">
          <mxGeometry relative="1" as="geometry" />
        </mxCell>
        <mxCell id="xQUeO6mjrXS3cHGue7Jo-64" style="edgeStyle=orthogonalEdgeStyle;rounded=0;orthogonalLoop=1;jettySize=auto;html=1;exitX=0.5;exitY=0;exitDx=0;exitDy=0;entryX=0.5;entryY=1;entryDx=0;entryDy=0;labelBackgroundColor=none;fontColor=default;" edge="1" parent="1" source="xQUeO6mjrXS3cHGue7Jo-65" target="xQUeO6mjrXS3cHGue7Jo-68">
          <mxGeometry relative="1" as="geometry" />
        </mxCell>
        <mxCell id="xQUeO6mjrXS3cHGue7Jo-65" value="Sensor" style="rounded=0;whiteSpace=wrap;html=1;labelBackgroundColor=none;" vertex="1" parent="1">
          <mxGeometry x="730" y="895" width="80" height="40" as="geometry" />
        </mxCell>
        <mxCell id="xQUeO6mjrXS3cHGue7Jo-67" value="SensorType" style="ellipse;whiteSpace=wrap;html=1;labelBackgroundColor=none;" vertex="1" parent="1">
          <mxGeometry x="715" y="1015" width="105" height="60" as="geometry" />
        </mxCell>
        <mxCell id="xQUeO6mjrXS3cHGue7Jo-68" value="SensorID" style="ellipse;whiteSpace=wrap;html=1;labelBackgroundColor=none;" vertex="1" parent="1">
          <mxGeometry x="717.5" y="795" width="105" height="60" as="geometry" />
        </mxCell>
        <mxCell id="xQUeO6mjrXS3cHGue7Jo-69" value="LinkedDeviceID" style="ellipse;whiteSpace=wrap;html=1;labelBackgroundColor=none;" vertex="1" parent="1">
          <mxGeometry x="557.5" y="985" width="105" height="60" as="geometry" />
        </mxCell>
        <mxCell id="xQUeO6mjrXS3cHGue7Jo-70" value="SensorStatus" style="ellipse;whiteSpace=wrap;html=1;labelBackgroundColor=none;" vertex="1" parent="1">
          <mxGeometry x="527.5" y="885" width="105" height="60" as="geometry" />
        </mxCell>
        <mxCell id="xQUeO6mjrXS3cHGue7Jo-71" value="" style="endArrow=classic;html=1;rounded=0;exitX=0;exitY=1;exitDx=0;exitDy=0;labelBackgroundColor=none;fontColor=default;" edge="1" parent="1" source="xQUeO6mjrXS3cHGue7Jo-65" target="xQUeO6mjrXS3cHGue7Jo-69">
          <mxGeometry width="50" height="50" relative="1" as="geometry">
            <mxPoint x="667.5" y="995" as="sourcePoint" />
            <mxPoint x="717.5" y="945" as="targetPoint" />
          </mxGeometry>
        </mxCell>
        <mxCell id="xQUeO6mjrXS3cHGue7Jo-73" style="edgeStyle=orthogonalEdgeStyle;rounded=0;orthogonalLoop=1;jettySize=auto;html=1;labelBackgroundColor=none;fontColor=default;" edge="1" parent="1" source="xQUeO6mjrXS3cHGue7Jo-76" target="xQUeO6mjrXS3cHGue7Jo-77">
          <mxGeometry relative="1" as="geometry" />
        </mxCell>
        <mxCell id="xQUeO6mjrXS3cHGue7Jo-74" style="edgeStyle=orthogonalEdgeStyle;rounded=0;orthogonalLoop=1;jettySize=auto;html=1;exitX=0;exitY=0.5;exitDx=0;exitDy=0;entryX=1;entryY=0.5;entryDx=0;entryDy=0;labelBackgroundColor=none;fontColor=default;" edge="1" parent="1" source="xQUeO6mjrXS3cHGue7Jo-76" target="xQUeO6mjrXS3cHGue7Jo-81">
          <mxGeometry relative="1" as="geometry" />
        </mxCell>
        <mxCell id="xQUeO6mjrXS3cHGue7Jo-75" style="edgeStyle=orthogonalEdgeStyle;rounded=0;orthogonalLoop=1;jettySize=auto;html=1;exitX=0.5;exitY=0;exitDx=0;exitDy=0;entryX=0.5;entryY=1;entryDx=0;entryDy=0;labelBackgroundColor=none;fontColor=default;" edge="1" parent="1" source="xQUeO6mjrXS3cHGue7Jo-76" target="xQUeO6mjrXS3cHGue7Jo-79">
          <mxGeometry relative="1" as="geometry" />
        </mxCell>
        <mxCell id="xQUeO6mjrXS3cHGue7Jo-76" value="Schedule" style="rounded=0;whiteSpace=wrap;html=1;labelBackgroundColor=none;" vertex="1" parent="1">
          <mxGeometry x="-357.5" y="245" width="80" height="40" as="geometry" />
        </mxCell>
        <mxCell id="xQUeO6mjrXS3cHGue7Jo-77" value="Role" style="ellipse;whiteSpace=wrap;html=1;labelBackgroundColor=none;" vertex="1" parent="1">
          <mxGeometry x="-197.5" y="235" width="105" height="60" as="geometry" />
        </mxCell>
        <mxCell id="xQUeO6mjrXS3cHGue7Jo-78" value="Name" style="ellipse;whiteSpace=wrap;html=1;labelBackgroundColor=none;" vertex="1" parent="1">
          <mxGeometry x="-530" y="145" width="105" height="60" as="geometry" />
        </mxCell>
        <mxCell id="xQUeO6mjrXS3cHGue7Jo-79" value="UserId" style="ellipse;whiteSpace=wrap;html=1;labelBackgroundColor=none;" vertex="1" parent="1">
          <mxGeometry x="-370" y="145" width="105" height="60" as="geometry" />
        </mxCell>
        <mxCell id="xQUeO6mjrXS3cHGue7Jo-80" value="Password" style="ellipse;whiteSpace=wrap;html=1;labelBackgroundColor=none;" vertex="1" parent="1">
          <mxGeometry x="-530" y="335" width="105" height="60" as="geometry" />
        </mxCell>
        <mxCell id="xQUeO6mjrXS3cHGue7Jo-81" value="Email" style="ellipse;whiteSpace=wrap;html=1;labelBackgroundColor=none;" vertex="1" parent="1">
          <mxGeometry x="-560" y="235" width="105" height="60" as="geometry" />
        </mxCell>
        <mxCell id="xQUeO6mjrXS3cHGue7Jo-82" value="" style="endArrow=classic;html=1;rounded=0;exitX=0;exitY=1;exitDx=0;exitDy=0;labelBackgroundColor=none;fontColor=default;" edge="1" parent="1" source="xQUeO6mjrXS3cHGue7Jo-76" target="xQUeO6mjrXS3cHGue7Jo-80">
          <mxGeometry width="50" height="50" relative="1" as="geometry">
            <mxPoint x="-420" y="345" as="sourcePoint" />
            <mxPoint x="-370" y="295" as="targetPoint" />
          </mxGeometry>
        </mxCell>
        <mxCell id="xQUeO6mjrXS3cHGue7Jo-83" value="" style="endArrow=classic;html=1;rounded=0;exitX=0;exitY=0;exitDx=0;exitDy=0;entryX=1;entryY=1;entryDx=0;entryDy=0;labelBackgroundColor=none;fontColor=default;" edge="1" parent="1" source="xQUeO6mjrXS3cHGue7Jo-76" target="xQUeO6mjrXS3cHGue7Jo-78">
          <mxGeometry width="50" height="50" relative="1" as="geometry">
            <mxPoint x="-347" y="295" as="sourcePoint" />
            <mxPoint x="-433" y="352" as="targetPoint" />
          </mxGeometry>
        </mxCell>
        <mxCell id="xQUeO6mjrXS3cHGue7Jo-96" style="edgeStyle=orthogonalEdgeStyle;rounded=0;orthogonalLoop=1;jettySize=auto;html=1;labelBackgroundColor=none;fontColor=default;" edge="1" parent="1" source="xQUeO6mjrXS3cHGue7Jo-99" target="xQUeO6mjrXS3cHGue7Jo-100">
          <mxGeometry relative="1" as="geometry" />
        </mxCell>
        <mxCell id="xQUeO6mjrXS3cHGue7Jo-97" style="edgeStyle=orthogonalEdgeStyle;rounded=0;orthogonalLoop=1;jettySize=auto;html=1;exitX=0;exitY=0.5;exitDx=0;exitDy=0;entryX=1;entryY=0.5;entryDx=0;entryDy=0;labelBackgroundColor=none;fontColor=default;" edge="1" parent="1" source="xQUeO6mjrXS3cHGue7Jo-99" target="xQUeO6mjrXS3cHGue7Jo-104">
          <mxGeometry relative="1" as="geometry" />
        </mxCell>
        <mxCell id="xQUeO6mjrXS3cHGue7Jo-98" style="edgeStyle=orthogonalEdgeStyle;rounded=0;orthogonalLoop=1;jettySize=auto;html=1;exitX=0.5;exitY=0;exitDx=0;exitDy=0;entryX=0.5;entryY=1;entryDx=0;entryDy=0;labelBackgroundColor=none;fontColor=default;" edge="1" parent="1" source="xQUeO6mjrXS3cHGue7Jo-99" target="xQUeO6mjrXS3cHGue7Jo-102">
          <mxGeometry relative="1" as="geometry" />
        </mxCell>
        <mxCell id="xQUeO6mjrXS3cHGue7Jo-99" value="Log" style="rounded=0;whiteSpace=wrap;html=1;labelBackgroundColor=none;" vertex="1" parent="1">
          <mxGeometry x="162.5" y="245" width="80" height="40" as="geometry" />
        </mxCell>
        <mxCell id="xQUeO6mjrXS3cHGue7Jo-100" value="DeviceID" style="ellipse;whiteSpace=wrap;html=1;labelBackgroundColor=none;" vertex="1" parent="1">
          <mxGeometry x="287.5" y="235" width="105" height="60" as="geometry" />
        </mxCell>
        <mxCell id="xQUeO6mjrXS3cHGue7Jo-101" value="TimeStamp" style="ellipse;whiteSpace=wrap;html=1;labelBackgroundColor=none;" vertex="1" parent="1">
          <mxGeometry x="-10" y="145" width="105" height="60" as="geometry" />
        </mxCell>
        <mxCell id="xQUeO6mjrXS3cHGue7Jo-102" value="LogID" style="ellipse;whiteSpace=wrap;html=1;labelBackgroundColor=none;" vertex="1" parent="1">
          <mxGeometry x="150" y="145" width="105" height="60" as="geometry" />
        </mxCell>
        <mxCell id="xQUeO6mjrXS3cHGue7Jo-103" value="UserID" style="ellipse;whiteSpace=wrap;html=1;labelBackgroundColor=none;" vertex="1" parent="1">
          <mxGeometry x="-10" y="335" width="105" height="60" as="geometry" />
        </mxCell>
        <mxCell id="xQUeO6mjrXS3cHGue7Jo-104" value="ActionPerformed" style="ellipse;whiteSpace=wrap;html=1;labelBackgroundColor=none;" vertex="1" parent="1">
          <mxGeometry x="-40" y="235" width="105" height="60" as="geometry" />
        </mxCell>
        <mxCell id="xQUeO6mjrXS3cHGue7Jo-105" value="" style="endArrow=classic;html=1;rounded=0;exitX=0;exitY=1;exitDx=0;exitDy=0;labelBackgroundColor=none;fontColor=default;" edge="1" parent="1" source="xQUeO6mjrXS3cHGue7Jo-99" target="xQUeO6mjrXS3cHGue7Jo-103">
          <mxGeometry width="50" height="50" relative="1" as="geometry">
            <mxPoint x="100" y="345" as="sourcePoint" />
            <mxPoint x="150" y="295" as="targetPoint" />
          </mxGeometry>
        </mxCell>
        <mxCell id="xQUeO6mjrXS3cHGue7Jo-106" value="" style="endArrow=classic;html=1;rounded=0;exitX=0;exitY=0;exitDx=0;exitDy=0;entryX=1;entryY=1;entryDx=0;entryDy=0;labelBackgroundColor=none;fontColor=default;" edge="1" parent="1" source="xQUeO6mjrXS3cHGue7Jo-99" target="xQUeO6mjrXS3cHGue7Jo-101">
          <mxGeometry width="50" height="50" relative="1" as="geometry">
            <mxPoint x="173" y="295" as="sourcePoint" />
            <mxPoint x="87" y="352" as="targetPoint" />
          </mxGeometry>
        </mxCell>
        <mxCell id="xQUeO6mjrXS3cHGue7Jo-108" value="CAN" style="rhombus;whiteSpace=wrap;html=1;labelBackgroundColor=none;" vertex="1" parent="1">
          <mxGeometry x="430" y="555" width="80" height="80" as="geometry" />
        </mxCell>
        <mxCell id="xQUeO6mjrXS3cHGue7Jo-109" value="" style="endArrow=none;html=1;rounded=0;entryX=0;entryY=0.5;entryDx=0;entryDy=0;exitX=1;exitY=0.5;exitDx=0;exitDy=0;labelBackgroundColor=none;fontColor=default;" edge="1" parent="1" source="xQUeO6mjrXS3cHGue7Jo-1" target="xQUeO6mjrXS3cHGue7Jo-108">
          <mxGeometry width="50" height="50" relative="1" as="geometry">
            <mxPoint x="255" y="605" as="sourcePoint" />
            <mxPoint x="305" y="555" as="targetPoint" />
          </mxGeometry>
        </mxCell>
        <mxCell id="xQUeO6mjrXS3cHGue7Jo-110" value="" style="endArrow=none;html=1;rounded=0;entryX=0;entryY=0.5;entryDx=0;entryDy=0;exitX=1;exitY=0.5;exitDx=0;exitDy=0;labelBackgroundColor=none;fontColor=default;" edge="1" parent="1" source="xQUeO6mjrXS3cHGue7Jo-108" target="xQUeO6mjrXS3cHGue7Jo-20">
          <mxGeometry width="50" height="50" relative="1" as="geometry">
            <mxPoint x="248" y="605" as="sourcePoint" />
            <mxPoint x="440" y="605" as="targetPoint" />
          </mxGeometry>
        </mxCell>
        <mxCell id="xQUeO6mjrXS3cHGue7Jo-111" value="1" style="text;html=1;align=center;verticalAlign=middle;resizable=0;points=[];autosize=1;strokeColor=none;fillColor=none;labelBackgroundColor=none;" vertex="1" parent="1">
          <mxGeometry x="245" y="565" width="30" height="30" as="geometry" />
        </mxCell>
        <mxCell id="xQUeO6mjrXS3cHGue7Jo-112" value="N" style="text;html=1;align=center;verticalAlign=middle;resizable=0;points=[];autosize=1;strokeColor=none;fillColor=none;labelBackgroundColor=none;" vertex="1" parent="1">
          <mxGeometry x="675" y="555" width="30" height="30" as="geometry" />
        </mxCell>
        <mxCell id="xQUeO6mjrXS3cHGue7Jo-114" value="" style="endArrow=classic;html=1;rounded=0;exitX=1;exitY=0;exitDx=0;exitDy=0;labelBackgroundColor=none;fontColor=default;" edge="1" parent="1" source="xQUeO6mjrXS3cHGue7Jo-1" target="xQUeO6mjrXS3cHGue7Jo-2">
          <mxGeometry width="50" height="50" relative="1" as="geometry">
            <mxPoint x="168" y="625" as="sourcePoint" />
            <mxPoint x="82" y="682" as="targetPoint" />
          </mxGeometry>
        </mxCell>
        <mxCell id="xQUeO6mjrXS3cHGue7Jo-116" value="Have" style="rhombus;whiteSpace=wrap;html=1;labelBackgroundColor=none;" vertex="1" parent="1">
          <mxGeometry x="157.5" y="695" width="80" height="80" as="geometry" />
        </mxCell>
        <mxCell id="xQUeO6mjrXS3cHGue7Jo-117" value="" style="endArrow=none;html=1;rounded=0;entryX=0.5;entryY=1;entryDx=0;entryDy=0;exitX=0.5;exitY=0;exitDx=0;exitDy=0;labelBackgroundColor=none;fontColor=default;" edge="1" parent="1" source="xQUeO6mjrXS3cHGue7Jo-116" target="xQUeO6mjrXS3cHGue7Jo-1">
          <mxGeometry width="50" height="50" relative="1" as="geometry">
            <mxPoint x="175" y="695" as="sourcePoint" />
            <mxPoint x="225" y="645" as="targetPoint" />
          </mxGeometry>
        </mxCell>
        <mxCell id="xQUeO6mjrXS3cHGue7Jo-118" value="" style="endArrow=none;html=1;rounded=0;exitX=0.5;exitY=1;exitDx=0;exitDy=0;labelBackgroundColor=none;fontColor=default;" edge="1" parent="1" source="xQUeO6mjrXS3cHGue7Jo-116" target="xQUeO6mjrXS3cHGue7Jo-43">
          <mxGeometry width="50" height="50" relative="1" as="geometry">
            <mxPoint x="195" y="785" as="sourcePoint" />
            <mxPoint x="208" y="625" as="targetPoint" />
          </mxGeometry>
        </mxCell>
        <mxCell id="xQUeO6mjrXS3cHGue7Jo-119" value="1" style="text;html=1;align=center;verticalAlign=middle;resizable=0;points=[];autosize=1;strokeColor=none;fillColor=none;labelBackgroundColor=none;" vertex="1" parent="1">
          <mxGeometry x="195" y="615" width="30" height="30" as="geometry" />
        </mxCell>
        <mxCell id="xQUeO6mjrXS3cHGue7Jo-120" value="N" style="text;html=1;align=center;verticalAlign=middle;resizable=0;points=[];autosize=1;strokeColor=none;fillColor=none;labelBackgroundColor=none;" vertex="1" parent="1">
          <mxGeometry x="195" y="865" width="30" height="30" as="geometry" />
        </mxCell>
        <mxCell id="xQUeO6mjrXS3cHGue7Jo-123" value="" style="endArrow=classic;html=1;rounded=0;exitX=0.5;exitY=1;exitDx=0;exitDy=0;entryX=0.5;entryY=0;entryDx=0;entryDy=0;labelBackgroundColor=none;fontColor=default;" edge="1" parent="1" source="xQUeO6mjrXS3cHGue7Jo-65" target="xQUeO6mjrXS3cHGue7Jo-67">
          <mxGeometry width="50" height="50" relative="1" as="geometry">
            <mxPoint x="812.5" y="1005" as="sourcePoint" />
            <mxPoint x="862.5" y="955" as="targetPoint" />
          </mxGeometry>
        </mxCell>
        <mxCell id="xQUeO6mjrXS3cHGue7Jo-127" style="edgeStyle=orthogonalEdgeStyle;rounded=0;orthogonalLoop=1;jettySize=auto;html=1;entryX=0;entryY=0.25;entryDx=0;entryDy=0;labelBackgroundColor=none;fontColor=default;" edge="1" parent="1" source="xQUeO6mjrXS3cHGue7Jo-125" target="xQUeO6mjrXS3cHGue7Jo-65">
          <mxGeometry relative="1" as="geometry">
            <Array as="points">
              <mxPoint x="675" y="785" />
              <mxPoint x="675" y="905" />
            </Array>
          </mxGeometry>
        </mxCell>
        <mxCell id="xQUeO6mjrXS3cHGue7Jo-128" style="edgeStyle=orthogonalEdgeStyle;rounded=0;orthogonalLoop=1;jettySize=auto;html=1;exitX=0;exitY=0.5;exitDx=0;exitDy=0;entryX=1;entryY=1;entryDx=0;entryDy=0;labelBackgroundColor=none;fontColor=default;" edge="1" parent="1" source="xQUeO6mjrXS3cHGue7Jo-125" target="xQUeO6mjrXS3cHGue7Jo-1">
          <mxGeometry relative="1" as="geometry">
            <mxPoint x="345" y="715" as="targetPoint" />
            <Array as="points">
              <mxPoint x="435" y="735" />
              <mxPoint x="305" y="735" />
              <mxPoint x="305" y="615" />
            </Array>
          </mxGeometry>
        </mxCell>
        <mxCell id="xQUeO6mjrXS3cHGue7Jo-125" value="Have" style="rhombus;whiteSpace=wrap;html=1;labelBackgroundColor=none;" vertex="1" parent="1">
          <mxGeometry x="435" y="745" width="80" height="80" as="geometry" />
        </mxCell>
        <mxCell id="xQUeO6mjrXS3cHGue7Jo-129" value="1" style="text;html=1;align=center;verticalAlign=middle;resizable=0;points=[];autosize=1;strokeColor=none;fillColor=none;labelBackgroundColor=none;" vertex="1" parent="1">
          <mxGeometry x="315" y="695" width="30" height="30" as="geometry" />
        </mxCell>
        <mxCell id="xQUeO6mjrXS3cHGue7Jo-130" value="N" style="text;html=1;align=center;verticalAlign=middle;resizable=0;points=[];autosize=1;strokeColor=none;fillColor=none;labelBackgroundColor=none;" vertex="1" parent="1">
          <mxGeometry x="685" y="865" width="30" height="30" as="geometry" />
        </mxCell>
        <mxCell id="xQUeO6mjrXS3cHGue7Jo-131" value="" style="endArrow=classic;html=1;rounded=0;exitX=0;exitY=0.75;exitDx=0;exitDy=0;labelBackgroundColor=none;fontColor=default;" edge="1" parent="1" source="xQUeO6mjrXS3cHGue7Jo-1" target="xQUeO6mjrXS3cHGue7Jo-6">
          <mxGeometry width="50" height="50" relative="1" as="geometry">
            <mxPoint x="75" y="635" as="sourcePoint" />
            <mxPoint x="125" y="585" as="targetPoint" />
          </mxGeometry>
        </mxCell>
        <mxCell id="xQUeO6mjrXS3cHGue7Jo-132" value="Multiple" style="rhombus;whiteSpace=wrap;html=1;labelBackgroundColor=none;" vertex="1" parent="1">
          <mxGeometry x="-125" y="555" width="80" height="80" as="geometry" />
        </mxCell>
        <mxCell id="xQUeO6mjrXS3cHGue7Jo-133" value="" style="endArrow=none;html=1;rounded=0;entryX=0;entryY=0.5;entryDx=0;entryDy=0;exitX=1;exitY=0.5;exitDx=0;exitDy=0;labelBackgroundColor=none;fontColor=default;" edge="1" parent="1" source="xQUeO6mjrXS3cHGue7Jo-54" target="xQUeO6mjrXS3cHGue7Jo-132">
          <mxGeometry width="50" height="50" relative="1" as="geometry">
            <mxPoint x="-245" y="615" as="sourcePoint" />
            <mxPoint x="-195" y="565" as="targetPoint" />
          </mxGeometry>
        </mxCell>
        <mxCell id="xQUeO6mjrXS3cHGue7Jo-134" value="" style="endArrow=none;html=1;rounded=0;entryX=0;entryY=0.5;entryDx=0;entryDy=0;exitX=1;exitY=0.5;exitDx=0;exitDy=0;labelBackgroundColor=none;fontColor=default;" edge="1" parent="1" source="xQUeO6mjrXS3cHGue7Jo-132" target="xQUeO6mjrXS3cHGue7Jo-1">
          <mxGeometry width="50" height="50" relative="1" as="geometry">
            <mxPoint x="-65" y="595" as="sourcePoint" />
            <mxPoint x="-115" y="605" as="targetPoint" />
          </mxGeometry>
        </mxCell>
        <mxCell id="xQUeO6mjrXS3cHGue7Jo-135" value="N" style="text;html=1;align=center;verticalAlign=middle;resizable=0;points=[];autosize=1;strokeColor=none;fillColor=none;labelBackgroundColor=none;" vertex="1" parent="1">
          <mxGeometry x="115" y="570" width="30" height="30" as="geometry" />
        </mxCell>
        <mxCell id="xQUeO6mjrXS3cHGue7Jo-136" value="N" style="text;html=1;align=center;verticalAlign=middle;resizable=0;points=[];autosize=1;strokeColor=none;fillColor=none;labelBackgroundColor=none;" vertex="1" parent="1">
          <mxGeometry x="-255" y="555" width="30" height="30" as="geometry" />
        </mxCell>
        <mxCell id="xQUeO6mjrXS3cHGue7Jo-139" value="" style="endArrow=classic;html=1;rounded=0;entryX=0.5;entryY=0;entryDx=0;entryDy=0;exitX=0.75;exitY=1;exitDx=0;exitDy=0;labelBackgroundColor=none;fontColor=default;" edge="1" parent="1" source="xQUeO6mjrXS3cHGue7Jo-54" target="xQUeO6mjrXS3cHGue7Jo-57">
          <mxGeometry width="50" height="50" relative="1" as="geometry">
            <mxPoint x="-370" y="710" as="sourcePoint" />
            <mxPoint x="-320" y="660" as="targetPoint" />
          </mxGeometry>
        </mxCell>
        <mxCell id="xQUeO6mjrXS3cHGue7Jo-140" value="" style="endArrow=classic;html=1;rounded=0;entryX=0.5;entryY=0;entryDx=0;entryDy=0;exitX=0.25;exitY=1;exitDx=0;exitDy=0;labelBackgroundColor=none;fontColor=default;" edge="1" parent="1" source="xQUeO6mjrXS3cHGue7Jo-54" target="xQUeO6mjrXS3cHGue7Jo-55">
          <mxGeometry width="50" height="50" relative="1" as="geometry">
            <mxPoint x="-360" y="710" as="sourcePoint" />
            <mxPoint x="-310" y="660" as="targetPoint" />
          </mxGeometry>
        </mxCell>
        <mxCell id="xQUeO6mjrXS3cHGue7Jo-141" value="Linked" style="rhombus;whiteSpace=wrap;html=1;labelBackgroundColor=none;" vertex="1" parent="1">
          <mxGeometry x="-360" y="390" width="80" height="80" as="geometry" />
        </mxCell>
        <mxCell id="xQUeO6mjrXS3cHGue7Jo-142" value="" style="endArrow=none;html=1;rounded=0;entryX=0.5;entryY=1;entryDx=0;entryDy=0;exitX=0.25;exitY=0;exitDx=0;exitDy=0;labelBackgroundColor=none;fontColor=default;" edge="1" parent="1" source="xQUeO6mjrXS3cHGue7Jo-54" target="xQUeO6mjrXS3cHGue7Jo-141">
          <mxGeometry width="50" height="50" relative="1" as="geometry">
            <mxPoint x="-320" y="560" as="sourcePoint" />
            <mxPoint x="-270" y="480" as="targetPoint" />
          </mxGeometry>
        </mxCell>
        <mxCell id="xQUeO6mjrXS3cHGue7Jo-146" value="" style="endArrow=none;html=1;rounded=0;entryX=0.5;entryY=1;entryDx=0;entryDy=0;exitX=0.5;exitY=0;exitDx=0;exitDy=0;labelBackgroundColor=none;fontColor=default;" edge="1" parent="1" source="xQUeO6mjrXS3cHGue7Jo-141" target="xQUeO6mjrXS3cHGue7Jo-76">
          <mxGeometry width="50" height="50" relative="1" as="geometry">
            <mxPoint x="-314" y="580" as="sourcePoint" />
            <mxPoint x="-310" y="480" as="targetPoint" />
          </mxGeometry>
        </mxCell>
        <mxCell id="xQUeO6mjrXS3cHGue7Jo-147" value="1" style="text;html=1;align=center;verticalAlign=middle;resizable=0;points=[];autosize=1;strokeColor=none;fillColor=none;labelBackgroundColor=none;" vertex="1" parent="1">
          <mxGeometry x="-307.5" y="295" width="30" height="30" as="geometry" />
        </mxCell>
        <mxCell id="xQUeO6mjrXS3cHGue7Jo-148" value="N" style="text;html=1;align=center;verticalAlign=middle;resizable=0;points=[];autosize=1;strokeColor=none;fillColor=none;labelBackgroundColor=none;" vertex="1" parent="1">
          <mxGeometry x="-319.5" y="535" width="30" height="30" as="geometry" />
        </mxCell>
        <mxCell id="xQUeO6mjrXS3cHGue7Jo-152" value="CAN" style="rhombus;whiteSpace=wrap;html=1;labelBackgroundColor=none;" vertex="1" parent="1">
          <mxGeometry x="157.5" y="410" width="80" height="80" as="geometry" />
        </mxCell>
        <mxCell id="xQUeO6mjrXS3cHGue7Jo-154" value="" style="endArrow=none;html=1;rounded=0;entryX=0.5;entryY=1;entryDx=0;entryDy=0;exitX=0.5;exitY=0;exitDx=0;exitDy=0;labelBackgroundColor=none;fontColor=default;" edge="1" parent="1" source="xQUeO6mjrXS3cHGue7Jo-1" target="xQUeO6mjrXS3cHGue7Jo-152">
          <mxGeometry width="50" height="50" relative="1" as="geometry">
            <mxPoint x="150" y="550" as="sourcePoint" />
            <mxPoint x="200" y="500" as="targetPoint" />
          </mxGeometry>
        </mxCell>
        <mxCell id="xQUeO6mjrXS3cHGue7Jo-155" value="" style="endArrow=none;html=1;rounded=0;entryX=0.5;entryY=1;entryDx=0;entryDy=0;exitX=0.5;exitY=0;exitDx=0;exitDy=0;labelBackgroundColor=none;fontColor=default;" edge="1" parent="1" source="xQUeO6mjrXS3cHGue7Jo-152" target="xQUeO6mjrXS3cHGue7Jo-99">
          <mxGeometry width="50" height="50" relative="1" as="geometry">
            <mxPoint x="310" y="580" as="sourcePoint" />
            <mxPoint x="360" y="530" as="targetPoint" />
          </mxGeometry>
        </mxCell>
        <mxCell id="xQUeO6mjrXS3cHGue7Jo-156" value="N" style="text;html=1;align=center;verticalAlign=middle;resizable=0;points=[];autosize=1;strokeColor=none;fillColor=none;labelBackgroundColor=none;" vertex="1" parent="1">
          <mxGeometry x="165" y="295" width="30" height="30" as="geometry" />
        </mxCell>
        <mxCell id="xQUeO6mjrXS3cHGue7Jo-157" value="1" style="text;html=1;align=center;verticalAlign=middle;resizable=0;points=[];autosize=1;strokeColor=none;fillColor=none;labelBackgroundColor=none;" vertex="1" parent="1">
          <mxGeometry x="157.5" y="540" width="30" height="30" as="geometry" />
        </mxCell>
      </root>
    </mxGraphModel>
  </diagram>
</mxfile>
